C:\Users\Nicos\Documents\OpenSimProjects\SprintingProject\Study1\PredictiveResults\IC_pred_Sprinting_optimum_28-October-2023__13-58-45_p02_maxVel_01___IKTD_Minus_6_GRF.mot
version=1
nRows=4
nColumns=127
inDegrees=yes
endheader
time	ground_force_vx	ground_force_vy	ground_force_vz	ground_force_px	ground_force_py	ground_force_pz	ground_torque_x	ground_torque_y	ground_torque_z	1_ground_force_vx	1_ground_force_vy	1_ground_force_vz	1_ground_force_px	1_ground_force_py	1_ground_force_pz	1_ground_torque_x	1_ground_torque_y	1_ground_torque_z	2_ground_force_vx	2_ground_force_vy	2_ground_force_vz	2_ground_force_px	2_ground_force_py	2_ground_force_pz	2_ground_torque_x	2_ground_torque_y	2_ground_torque_z	3_ground_force_vx	3_ground_force_vy	3_ground_force_vz	3_ground_force_px	3_ground_force_py	3_ground_force_pz	3_ground_torque_x	3_ground_torque_y	3_ground_torque_z	4_ground_force_vx	4_ground_force_vy	4_ground_force_vz	4_ground_force_px	4_ground_force_py	4_ground_force_pz	4_ground_torque_x	4_ground_torque_y	4_ground_torque_z	5_ground_force_vx	5_ground_force_vy	5_ground_force_vz	5_ground_force_px	5_ground_force_py	5_ground_force_pz	5_ground_torque_x	5_ground_torque_y	5_ground_torque_z	6_ground_force_vx	6_ground_force_vy	6_ground_force_vz	6_ground_force_px	6_ground_force_py	6_ground_force_pz	6_ground_torque_x	6_ground_torque_y	6_ground_torque_z	7_ground_force_vx	7_ground_force_vy	7_ground_force_vz	7_ground_force_px	7_ground_force_py	7_ground_force_pz	7_ground_torque_x	7_ground_torque_y	7_ground_torque_z	8_ground_force_vx	8_ground_force_vy	8_ground_force_vz	8_ground_force_px	8_ground_force_py	8_ground_force_pz	8_ground_torque_x	8_ground_torque_y	8_ground_torque_z	9_ground_force_vx	9_ground_force_vy	9_ground_force_vz	9_ground_force_px	9_ground_force_py	9_ground_force_pz	9_ground_torque_x	9_ground_torque_y	9_ground_torque_z	10_ground_force_vx	10_ground_force_vy	10_ground_force_vz	10_ground_force_px	10_ground_force_py	10_ground_force_pz	10_ground_torque_x	10_ground_torque_y	10_ground_torque_z	11_ground_force_vx	11_ground_force_vy	11_ground_force_vz	11_ground_force_px	11_ground_force_py	11_ground_force_pz	11_ground_torque_x	11_ground_torque_y	11_ground_torque_z	12_ground_force_vx	12_ground_force_vy	12_ground_force_vz	12_ground_force_px	12_ground_force_py	12_ground_force_pz	12_ground_torque_x	12_ground_torque_y	12_ground_torque_z	13_ground_force_vx	13_ground_force_vy	13_ground_force_vz	13_ground_force_px	13_ground_force_py	13_ground_force_pz	13_ground_torque_x	13_ground_torque_y	13_ground_torque_z
0.106816	371.537688	823.185461	-92.440323	0.407183	-0.018956	0.453569	0.000000	0.000000	0.000000	136.419648	329.347710	30.740843	0.363174	-0.011207	0.470604	0.000000	0.000000	0.000000	46.917161	181.741432	28.945260	0.332415	-0.008157	0.457798	0.000000	0.000000	0.000000	87.048767	286.992513	-10.821485	0.336936	-0.011065	0.436298	0.000000	0.000000	0.000000	-0.001121	0.003153	0.000753	0.249880	0.008975	0.478744	0.000000	0.000000	0.000000	-16.302995	58.472243	11.810572	0.304821	-0.003891	0.449688	0.000000	0.000000	0.000000	-0.000012	0.000026	0.000007	0.194443	0.013172	0.417250	0.000000	0.000000	0.000000	-0.000000	0.000000	-0.000000	0.545863	0.162886	0.106438	0.000000	0.000000	0.000000	-0.000000	0.000000	-0.000000	0.531375	0.185221	0.090253	0.000000	0.000000	0.000000	-0.000000	0.000000	-0.000000	0.511189	0.197712	0.101206	0.000000	0.000000	0.000000	-0.000000	0.000000	-0.000000	0.504398	0.192772	0.120512	0.000000	0.000000	0.000000	-0.000000	0.000000	-0.000000	0.484639	0.240677	0.082874	0.000000	0.000000	0.000000	-0.000000	0.000000	-0.000000	0.496190	0.210156	0.108667	0.000000	0.000000	0.000000	-0.000000	0.000000	-0.000000	0.436194	0.259929	0.138512	0.000000	0.000000	0.000000
0.108864	405.279482	828.845544	-75.304643	0.406038	-0.019243	0.453844	0.000000	0.000000	0.000000	120.764794	279.797325	29.175829	0.362889	-0.010207	0.470542	0.000000	0.000000	0.000000	23.692852	116.093496	26.373196	0.333075	-0.006101	0.457806	0.000000	0.000000	0.000000	63.189029	208.745516	11.345861	0.337416	-0.009100	0.436320	0.000000	0.000000	0.000000	-0.000013	0.000033	0.000007	0.252364	0.013198	0.478321	0.000000	0.000000	0.000000	-4.101133	13.765699	2.611589	0.306031	-0.001091	0.449545	0.000000	0.000000	0.000000	-0.000000	0.000000	0.000000	0.197858	0.018949	0.416499	0.000000	0.000000	0.000000	-0.000000	0.000000	-0.000000	0.587803	0.160556	0.107347	0.000000	0.000000	0.000000	-0.000000	0.000000	-0.000000	0.571926	0.182581	0.090769	0.000000	0.000000	0.000000	-0.000000	0.000000	-0.000000	0.550475	0.194772	0.101531	0.000000	0.000000	0.000000	-0.000000	0.000000	-0.000000	0.543883	0.189772	0.120844	0.000000	0.000000	0.000000	-0.000000	0.000000	-0.000000	0.521424	0.237274	0.082681	0.000000	0.000000	0.000000	-0.000000	0.000000	-0.000000	0.534686	0.206997	0.108803	0.000000	0.000000	0.000000	-0.000000	0.000000	-0.000000	0.471527	0.255897	0.137889	0.000000	0.000000	0.000000
0.110349	434.334086	827.189657	-56.475616	0.405034	-0.019359	0.454016	0.000000	0.000000	0.000000	108.658628	241.291797	30.512643	0.362660	-0.009346	0.470468	0.000000	0.000000	0.000000	-3.139045	73.098545	21.920718	0.333674	-0.004453	0.457812	0.000000	0.000000	0.000000	45.342827	154.339496	11.925352	0.337868	-0.007520	0.436335	0.000000	0.000000	0.000000	-0.000000	0.000001	0.000000	0.254529	0.016479	0.478017	0.000000	0.000000	0.000000	-1.152478	3.545305	0.573240	0.307108	0.001119	0.449442	0.000000	0.000000	0.000000	-0.000000	0.000000	0.000000	0.200846	0.023409	0.415959	0.000000	0.000000	0.000000	-0.000000	0.000000	-0.000000	0.618318	0.158861	0.108107	0.000000	0.000000	0.000000	-0.000000	0.000000	-0.000000	0.601443	0.180645	0.091246	0.000000	0.000000	0.000000	-0.000000	0.000000	-0.000000	0.579124	0.192601	0.101863	0.000000	0.000000	0.000000	-0.000000	0.000000	-0.000000	0.572687	0.187560	0.121187	0.000000	0.000000	0.000000	-0.000000	0.000000	-0.000000	0.548247	0.234735	0.082620	0.000000	0.000000	0.000000	-0.000000	0.000000	-0.000000	0.562766	0.204658	0.108996	0.000000	0.000000	0.000000	-0.000000	0.000000	-0.000000	0.497333	0.252888	0.137525	0.000000	0.000000	0.000000
0.110997	445.180150	823.495129	-47.826143	0.404550	-0.019380	0.454083	0.000000	0.000000	0.000000	102.445479	223.663851	30.611553	0.362557	-0.008930	0.470427	0.000000	0.000000	0.000000	-11.654783	56.137743	12.514682	0.333975	-0.003690	0.457817	0.000000	0.000000	0.000000	35.674575	131.662028	16.309130	0.338099	-0.006787	0.436343	0.000000	0.000000	0.000000	-0.000000	0.000000	0.000000	0.255582	0.017969	0.477890	0.000000	0.000000	0.000000	-0.655411	1.943765	0.288684	0.307640	0.002132	0.449399	0.000000	0.000000	0.000000	-0.000000	0.000000	0.000000	0.202300	0.025423	0.415730	0.000000	0.000000	0.000000	-0.000000	0.000000	-0.000000	0.631673	0.158119	0.108466	0.000000	0.000000	0.000000	-0.000000	0.000000	-0.000000	0.614364	0.179794	0.091482	0.000000	0.000000	0.000000	-0.000000	0.000000	-0.000000	0.591681	0.191643	0.102034	0.000000	0.000000	0.000000	-0.000000	0.000000	-0.000000	0.585316	0.186586	0.121365	0.000000	0.000000	0.000000	-0.000000	0.000000	-0.000000	0.560006	0.233609	0.082615	0.000000	0.000000	0.000000	-0.000000	0.000000	-0.000000	0.575076	0.203625	0.109106	0.000000	0.000000	0.000000	-0.000000	0.000000	-0.000000	0.508657	0.251553	0.137391	0.000000	0.000000	0.000000
